<svg xmlns="http://www.w3.org/2000/svg" xmlns:xlink="http://www.w3.org/1999/xlink" width="250" height="100" viewBox="0 0 187.5 75" version="1.2"><defs><symbol overflow="visible" id="a"><path d="M21-2.813c-.73.762-1.809 1.481-3.234 2.157C16.348.02 14.5.359 12.219.359c-3.324 0-6.04-1.164-8.14-3.5C1.983-5.473.937-8.5.937-12.219v-.422c0-3.738 1.035-6.77 3.109-9.093 2.082-2.32 4.848-3.485 8.297-3.485 1.844 0 3.46.29 4.86.86 1.394.574 2.57 1.336 3.53 2.28v4.517h-2.359L17.547-21c-.555-.457-1.227-.832-2.016-1.125-.793-.3-1.742-.453-2.844-.453-2.687 0-4.761.922-6.218 2.765-1.45 1.836-2.172 4.215-2.172 7.141v.453c0 2.969.703 5.371 2.11 7.203 1.405 1.836 3.343 2.75 5.812 2.75 1.351 0 2.46-.14 3.328-.421.875-.29 1.57-.61 2.094-.954v-5.437l-4.078-.172v-2.484H21zm0 0"/></symbol><symbol overflow="visible" id="b"><path d="M1.063-24.469v-2.172h6.14v24.016l2.781.469V0H1.063v-2.156l2.78-.469v-21.36zm0 0"/></symbol><symbol overflow="visible" id="c"><path d="M13.578 0c-.105-.5-.187-.945-.25-1.344-.055-.406-.09-.804-.11-1.203a8.035 8.035 0 01-2.437 2.078 6.2 6.2 0 01-3.11.828c-1.929 0-3.39-.468-4.39-1.406-1-.937-1.5-2.258-1.5-3.969 0-1.757.707-3.113 2.125-4.062 1.414-.945 3.36-1.422 5.828-1.422h3.47v-2.156c0-1.082-.345-1.938-1.032-2.563-.68-.633-1.625-.953-2.844-.953-.844 0-1.59.11-2.234.328-.649.219-1.168.516-1.563.89l-.36 1.938H2.579v-3.578c.844-.676 1.86-1.21 3.047-1.61 1.195-.405 2.5-.608 3.906-.608 2.094 0 3.785.539 5.078 1.609 1.301 1.062 1.954 2.59 1.954 4.578v9.609c.007.22.023.446.046.672l1.375.188V0zM8.156-2.453c1.114 0 2.13-.266 3.047-.797.926-.54 1.594-1.188 2-1.938v-3.046H9.61c-1.375 0-2.464.324-3.265.968-.805.637-1.203 1.407-1.203 2.313 0 .812.25 1.433.75 1.86.5.429 1.254.64 2.265.64zm0 0"/></symbol><symbol overflow="visible" id="d"><path d="M13.969-2.203c-.606.844-1.344 1.484-2.219 1.922-.867.426-1.875.64-3.031.64-2.25 0-4.012-.816-5.281-2.453C2.163-3.727 1.53-5.875 1.53-8.53v-.36c0-2.976.633-5.375 1.907-7.187 1.269-1.82 3.046-2.735 5.328-2.735 1.082 0 2.039.204 2.875.61a5.85 5.85 0 012.156 1.75v-7.531l-2.781-.485v-2.172h6.14v24.016l2.782.469V0h-5.704zM4.906-8.531c0 1.855.38 3.344 1.14 4.469.759 1.125 1.938 1.687 3.532 1.687 1 0 1.836-.223 2.516-.672.687-.457 1.254-1.101 1.703-1.937v-8.579a5.188 5.188 0 00-1.703-1.828c-.688-.457-1.516-.687-2.485-.687-1.605 0-2.793.668-3.562 2-.762 1.324-1.14 3.055-1.14 5.187zm0 0"/></symbol><symbol overflow="visible" id="e"><path d="M9.953.36c-2.574 0-4.621-.852-6.14-2.563C2.288-3.922 1.53-6.145 1.53-8.875v-.75c0-2.633.782-4.82 2.344-6.563 1.57-1.75 3.426-2.625 5.563-2.625 2.488 0 4.367.75 5.64 2.25C16.36-15.063 17-13.055 17-10.546v2.094H5.016l-.047.094C5-6.586 5.445-5.13 6.312-3.984c.864 1.148 2.079 1.718 3.641 1.718 1.133 0 2.129-.16 2.985-.484a7.13 7.13 0 002.234-1.344L16.5-1.906c-.668.636-1.543 1.172-2.625 1.61-1.086.437-2.39.655-3.922.655zm-.515-16.532c-1.126 0-2.09.48-2.891 1.438-.793.949-1.277 2.136-1.453 3.562l.031.094h8.516v-.453c0-1.313-.356-2.41-1.063-3.297-.7-.895-1.746-1.344-3.14-1.344zm0 0"/></symbol><symbol overflow="visible" id="f"><path d="M1.516-16.313v-2.156h5.796l.313 2.672c.531-.945 1.176-1.687 1.938-2.219.769-.53 1.648-.797 2.64-.797.258 0 .531.024.813.063.28.031.492.074.64.125L13.22-15.5l-1.922-.11c-.887 0-1.633.212-2.235.626-.605.418-1.07 1-1.39 1.75v10.609l2.781.469V0H1.516v-2.156l2.78-.469v-13.203zm0 0"/></symbol><symbol overflow="visible" id="g"><path d="M19.078-16.313l-1.656.266-7.047 18.875a9.236 9.236 0 01-2.016 3.25c-.875.926-2.054 1.39-3.53 1.39-.263 0-.606-.03-1.032-.093a8.748 8.748 0 01-.969-.188l.344-2.64c-.063-.012.14 0 .61.031.468.031.765.047.89.047.719 0 1.3-.313 1.75-.938a9.922 9.922 0 001.156-2.14L8.391-.36 2.28-16.031l-1.687-.282v-2.156h7.468v2.157l-2.093.343 3.203 9.125.61 2.36h.109l3.843-11.485-2.109-.344v-2.156h7.453zm0 0"/></symbol></defs><path d="M30.426 41.379v9.156l7.172 4.145V37.238l-7.172 4.14" fill="#fff"/><path d="M22.645 63.313l7.78-4.493V41.38l7.173-4.14v17.44l7.164-4.136v-25.54l-9.664 5.583-12.453 7.187v25.54M7.688 37.238V54.68l7.175-4.145V41.38l-7.175-4.14" fill="#3134a1"/><path d="M7.688 37.238l7.175 4.14V58.82l7.782 4.492V37.773L.527 25.003v25.54l7.16 4.137V37.238" fill="#fff"/><path d="M15.012 25.004l7.633-4.41 7.632 4.41-7.632 4.406zm29.75 0l-22.117-12.77L.527 25l22.118 12.773 12.453-7.187 9.664-5.582" fill="#3134a1"/><path d="M22.645 20.594l-7.633 4.41 7.633 4.406zm0 0" fill="#3134a1"/><path d="M30.277 25.004l-7.632-4.41v8.816zm0 0" fill="#fff"/><use xlink:href="#a" x="53.964" y="51.001" fill="#fff"/><use xlink:href="#b" x="77.645" y="51.001" fill="#fff"/><use xlink:href="#c" x="88.658" y="51.001" fill="#fff"/><use xlink:href="#d" x="107.917" y="51.001" fill="#fff"/><use xlink:href="#e" x="128.901" y="51.001" fill="#fff"/><use xlink:href="#f" x="147.699" y="51.001" fill="#fff"/><use xlink:href="#g" x="162.161" y="51.001" fill="#fff"/></svg>