<svg aria-hidden="true" style="position: absolute; width: 0; height: 0; overflow: hidden;" version="1.1" xmlns="http://www.w3.org/2000/svg" xmlns:xlink="http://www.w3.org/1999/xlink">
<defs>
<symbol id="icon-envelope" viewBox="0 0 43 32">
<path d="M38.667 0h-34.667c-2.206 0-4 1.794-4 4v24c0 2.206 1.794 4 4 4h34.667c2.206 0 4-1.794 4-4v-24c0-2.206-1.794-4-4-4zM38.667 2.667c0.181 0 0.353 0.038 0.511 0.103l-17.844 15.466-17.844-15.466c0.158-0.066 0.33-0.103 0.511-0.103h34.667zM38.667 29.333h-34.667c-0.736 0-1.333-0.598-1.333-1.333v-22.413l17.793 15.421c0.251 0.217 0.563 0.326 0.874 0.326s0.622-0.108 0.874-0.326l17.793-15.421v22.413c0 0.736-0.598 1.333-1.333 1.333z"></path>
</symbol>
<symbol id="icon-smartphone" viewBox="0 0 20 32">
<path d="M17 0h-14c-1.654 0-3 1.346-3 3v26c0 1.654 1.346 3 3 3h14c1.654 0 3-1.346 3-3v-26c0-1.654-1.346-3-3-3zM3 2h14c0.552 0 1 0.448 1 1v21h-16v-21c0-0.552 0.448-1 1-1zM17 30h-14c-0.552 0-1-0.448-1-1v-3h16v3c0 0.552-0.448 1-1 1z"></path>
<path d="M4.707 27.478c0.391 0.365 0.391 0.956 0 1.321s-1.024 0.365-1.414 0c-0.391-0.365-0.391-0.956 0-1.321s1.024-0.365 1.414 0z"></path>
</symbol>
<symbol id="icon-facebook-footer" viewBox="0 0 32 32">
<path d="M21.329 5.313h2.921v-5.088c-0.504-0.069-2.237-0.225-4.256-0.225-4.212 0-7.097 2.649-7.097 7.519v4.481h-4.648v5.688h4.648v14.312h5.699v-14.311h4.46l0.708-5.688h-5.169v-3.919c0.001-1.644 0.444-2.769 2.735-2.769z"></path>
</symbol>
<symbol id="icon-instagram-footer" viewBox="0 0 32 32">
<path d="M31.969 9.408c-0.075-1.7-0.35-2.869-0.744-3.882-0.406-1.075-1.031-2.038-1.85-2.838-0.8-0.813-1.769-1.444-2.832-1.844-1.019-0.394-2.182-0.669-3.882-0.744-1.713-0.081-2.257-0.1-6.601-0.1s-4.888 0.019-6.595 0.094c-1.7 0.075-2.869 0.35-3.882 0.744-1.075 0.406-2.038 1.031-2.838 1.85-0.813 0.8-1.444 1.769-1.844 2.832-0.394 1.019-0.669 2.182-0.744 3.882-0.081 1.713-0.1 2.257-0.1 6.601s0.019 4.888 0.094 6.595c0.075 1.7 0.35 2.869 0.744 3.882 0.406 1.075 1.038 2.038 1.85 2.838 0.8 0.813 1.769 1.444 2.832 1.844 1.019 0.394 2.182 0.669 3.882 0.744 1.706 0.075 2.25 0.094 6.595 0.094s4.888-0.019 6.595-0.094c1.7-0.075 2.869-0.35 3.882-0.744 2.151-0.832 3.851-2.532 4.682-4.682 0.394-1.019 0.669-2.182 0.744-3.882 0.075-1.707 0.094-2.251 0.094-6.595s-0.006-4.888-0.081-6.595zM29.087 22.473c-0.069 1.563-0.331 2.407-0.55 2.969-0.538 1.394-1.644 2.5-3.038 3.038-0.563 0.219-1.413 0.481-2.969 0.55-1.688 0.075-2.194 0.094-6.464 0.094s-4.782-0.019-6.464-0.094c-1.563-0.069-2.407-0.331-2.969-0.55-0.694-0.256-1.325-0.663-1.838-1.194-0.531-0.519-0.938-1.144-1.194-1.838-0.219-0.563-0.481-1.413-0.55-2.969-0.075-1.688-0.094-2.194-0.094-6.464s0.019-4.782 0.094-6.464c0.069-1.563 0.331-2.407 0.55-2.969 0.256-0.694 0.663-1.325 1.2-1.838 0.519-0.531 1.144-0.938 1.838-1.194 0.563-0.219 1.413-0.481 2.969-0.55 1.688-0.075 2.194-0.094 6.464-0.094 4.276 0 4.782 0.019 6.464 0.094 1.563 0.069 2.407 0.331 2.969 0.55 0.694 0.256 1.325 0.662 1.838 1.194 0.531 0.519 0.938 1.144 1.194 1.838 0.219 0.563 0.481 1.413 0.55 2.969 0.075 1.688 0.094 2.194 0.094 6.464s-0.019 4.77-0.094 6.458z"></path>
<path d="M16.059 7.783c-4.538 0-8.22 3.682-8.22 8.22s3.682 8.22 8.22 8.22c4.539 0 8.22-3.682 8.22-8.22s-3.682-8.22-8.22-8.22zM16.059 21.335c-2.944 0-5.332-2.388-5.332-5.332s2.388-5.332 5.332-5.332c2.944 0 5.332 2.388 5.332 5.332s-2.388 5.332-5.332 5.332z"></path>
<path d="M26.524 7.458c0 1.060-0.859 1.919-1.919 1.919s-1.919-0.859-1.919-1.919c0-1.060 0.859-1.919 1.919-1.919s1.919 0.859 1.919 1.919z"></path>
</symbol>
<symbol id="icon-linkedin-footer" viewBox="0 0 32 32">
<path d="M31.992 32v-0.001h0.008v-11.736c0-5.741-1.236-10.164-7.948-10.164-3.227 0-5.392 1.771-6.276 3.449h-0.093v-2.913h-6.364v21.364h6.627v-10.579c0-2.785 0.528-5.479 3.977-5.479 3.399 0 3.449 3.179 3.449 5.657v10.401h6.62z"></path>
<path d="M0.528 10.636h6.635v21.364h-6.635v-21.364z"></path>
<path d="M3.843 0c-2.121 0-3.843 1.721-3.843 3.843s1.721 3.879 3.843 3.879c2.121 0 3.843-1.757 3.843-3.879-0.001-2.121-1.723-3.843-3.843-3.843v0z"></path>
</symbol>
<symbol id="icon-twitter-footer" viewBox="0 0 32 32">
<path d="M32 6.078c-1.19 0.522-2.458 0.868-3.78 1.036 1.36-0.812 2.398-2.088 2.886-3.626-1.268 0.756-2.668 1.29-4.16 1.588-1.204-1.282-2.92-2.076-4.792-2.076-3.632 0-6.556 2.948-6.556 6.562 0 0.52 0.044 1.020 0.152 1.496-5.454-0.266-10.28-2.88-13.522-6.862-0.566 0.982-0.898 2.106-0.898 3.316 0 2.272 1.17 4.286 2.914 5.452-1.054-0.020-2.088-0.326-2.964-0.808 0 0.020 0 0.046 0 0.072 0 3.188 2.274 5.836 5.256 6.446-0.534 0.146-1.116 0.216-1.72 0.216-0.42 0-0.844-0.024-1.242-0.112 0.85 2.598 3.262 4.508 6.13 4.57-2.232 1.746-5.066 2.798-8.134 2.798-0.538 0-1.054-0.024-1.57-0.090 2.906 1.874 6.35 2.944 10.064 2.944 12.072 0 18.672-10 18.672-18.668 0-0.29-0.010-0.57-0.024-0.848 1.302-0.924 2.396-2.078 3.288-3.406z"></path>
</symbol>
<symbol id="icon-send" viewBox="0 0 32 32">
<path d="M32 0l-32 18 10.227 3.787 15.773-14.787-11.997 16.187 0.009 0.003-0.012-0.003v8.813l5.735-6.691 7.267 2.691 4.999-28z"></path>
</symbol>
<symbol id="icon-close-modal" viewBox="0 0 32 32">
<path d="M32 3.223l-3.223-3.223-12.777 12.777-12.777-12.777-3.223 3.223 12.777 12.777-12.777 12.777 3.223 3.223 12.777-12.777 12.777 12.777 3.223-3.223-12.777-12.777 12.777-12.777z"></path>
</symbol>
<symbol id="icon-email-black-18dp-1" viewBox="0 0 32 32">
<path d="M26.667 5.333h-21.333c-1.467 0-2.653 1.2-2.653 2.667l-0.013 16c0 1.467 1.2 2.667 2.667 2.667h21.333c1.467 0 2.667-1.2 2.667-2.667v-16c0-1.467-1.2-2.667-2.667-2.667zM26.133 11l-9.427 5.893c-0.427 0.267-0.987 0.267-1.413 0l-9.427-5.893c-0.333-0.213-0.533-0.573-0.533-0.96 0-0.893 0.973-1.427 1.733-0.96l8.933 5.587 8.933-5.587c0.76-0.467 1.733 0.067 1.733 0.96 0 0.387-0.2 0.747-0.533 0.96z"></path>
</symbol>
<symbol id="icon-person-black-18dp-1" viewBox="0 0 32 32">
<path d="M16 16c2.947 0 5.333-2.387 5.333-5.333s-2.387-5.333-5.333-5.333c-2.947 0-5.333 2.387-5.333 5.333s2.387 5.333 5.333 5.333zM16 18.667c-3.56 0-10.667 1.787-10.667 5.333v1.333c0 0.733 0.6 1.333 1.333 1.333h18.667c0.733 0 1.333-0.6 1.333-1.333v-1.333c0-3.547-7.107-5.333-10.667-5.333z"></path>
</symbol>
<symbol id="icon-phone-black-18dp-1" viewBox="0 0 32 32">
<path d="M24.882 19.773l-3.268-0.373c-0.785-0.090-1.557 0.18-2.11 0.733l-2.367 2.367c-3.641-1.853-6.626-4.825-8.478-8.478l2.38-2.38c0.553-0.553 0.823-1.325 0.733-2.11l-0.373-3.242c-0.154-1.299-1.248-2.277-2.56-2.277h-2.226c-1.454 0-2.663 1.209-2.573 2.663 0.682 10.987 9.469 19.761 20.443 20.443 1.454 0.090 2.663-1.119 2.663-2.573v-2.226c0.013-1.3-0.965-2.393-2.264-2.547z"></path>
</symbol>
<symbol id="icon-check" viewBox="0 0 34 32">
<path d="M8.442 16.537l-0.147-0.14-2.205 2.088 7.767 7.41 16.318-15.567-2.19-2.089-14.128 13.465-5.416-5.167z"></path>
</symbol>
<symbol id="icon-check-empty" viewBox="0 0 34 32">
<path d="M30.341 3.556v24.889h-26.548v-24.889h26.548zM30.341 0h-26.548c-2.086 0-3.793 1.6-3.793 3.556v24.889c0 1.956 1.707 3.556 3.793 3.556h26.548c2.086 0 3.793-1.6 3.793-3.556v-24.889c0-1.956-1.707-3.556-3.793-3.556z"></path>
</symbol>
<symbol id="icon-diamond" viewBox="0 0 32 32">
<path d="M31.898 13.473l-5.124-7.814c-0.113-0.171-0.305-0.282-0.523-0.282h-20.477c-0.21 0-0.406 0.106-0.522 0.281l-5.133 7.791c-0.074 0.102-0.119 0.229-0.119 0.367 0 0.158 0.059 0.302 0.155 0.412l-0.001-0.001 2.602 2.97c0.227 0.26 0.622 0.286 0.882 0.058s0.286-0.622 0.058-0.882l-1.694-1.934h8.406l4.224 14.422-4.773-5.45c-0.227-0.26-0.622-0.286-0.882-0.058s-0.286 0.622-0.058 0.882l6.612 7.549c0.115 0.131 0.283 0.213 0.47 0.213s0.355-0.082 0.47-0.213l0.001-0.001 7.039-8.040c0.227-0.26 0.201-0.654-0.058-0.882s-0.655-0.201-0.882 0.058l-5.201 5.94 4.224-14.421h8.403l-3.886 4.439c-0.227 0.26-0.201 0.654 0.058 0.882 0.109 0.096 0.253 0.155 0.411 0.155 0 0 0 0 0.001 0h-0c0 0 0.001 0 0.001 0 0.187 0 0.355-0.082 0.469-0.213l0.001-0.001 4.794-5.475c0.096-0.109 0.155-0.254 0.155-0.412 0-0.128-0.038-0.246-0.104-0.345l0.001 0.002zM1.786 13.191l3.987-6.051 3.968 6.051h-7.955zM6.931 6.627h7.914l-3.957 6.034-3.957-6.034zM16.002 7.141l3.967 6.050h-7.934l3.967-6.050zM16.002 29.088l-4.29-14.647h8.58l-4.29 14.647zM21.126 12.676l-3.967-6.050h7.934l-3.967 6.050zM22.283 13.191l3.967-6.050 3.967 6.050h-7.934z"></path>
<path d="M9.824 20.439c-1.612 0-2.924-1.312-2.924-2.924 0-0.345-0.28-0.625-0.625-0.625s-0.625 0.28-0.625 0.625c0 1.612-1.312 2.924-2.924 2.924-0.345 0-0.625 0.28-0.625 0.625s0.28 0.625 0.625 0.625c1.612 0 2.924 1.312 2.924 2.924 0 0.345 0.28 0.625 0.625 0.625s0.625-0.28 0.625-0.625c0-1.612 1.312-2.924 2.924-2.924 0.345 0 0.625-0.28 0.625-0.625s-0.28-0.625-0.625-0.625zM6.276 22.417c-0.347-0.553-0.801-1.007-1.336-1.344l-0.017-0.010c0.553-0.347 1.007-0.801 1.343-1.336l0.010-0.017c0.347 0.553 0.801 1.007 1.336 1.344l0.017 0.010c-0.553 0.347-1.007 0.801-1.343 1.336l-0.010 0.017zM31.375 2.501c-1.034 0-1.875-0.841-1.875-1.875 0-0.345-0.28-0.625-0.625-0.625s-0.625 0.28-0.625 0.625c0 1.034-0.841 1.875-1.875 1.875-0.345 0-0.625 0.28-0.625 0.625s0.28 0.625 0.625 0.625c1.034 0 1.875 0.841 1.875 1.875 0 0.345 0.28 0.625 0.625 0.625s0.625-0.28 0.625-0.625c0-1.034 0.841-1.875 1.875-1.875 0.345 0 0.625-0.28 0.625-0.625s-0.28-0.625-0.625-0.625zM28.875 3.753c-0.181-0.239-0.388-0.446-0.619-0.621l-0.008-0.006c0.239-0.181 0.446-0.388 0.621-0.619l0.006-0.008c0.181 0.239 0.388 0.446 0.619 0.621l0.008 0.006c-0.239 0.181-0.446 0.388-0.621 0.619l-0.006 0.008zM25.174 20.961c-0.113-0.113-0.269-0.183-0.442-0.183h-0c-0.164 0-0.325 0.066-0.442 0.183s-0.183 0.277-0.183 0.442 0.067 0.326 0.183 0.442c0.113 0.113 0.269 0.183 0.442 0.183h0c0.164 0 0.326-0.067 0.442-0.183s0.183-0.277 0.183-0.442-0.067-0.326-0.183-0.442z"></path>
</symbol>
<symbol id="icon-umbrella" viewBox="0 0 32 32">
<path d="M20.8 28.267v1.067c0 1.47-1.196 2.667-2.667 2.667s-2.667-1.196-2.667-2.667v-12.8c0-0.295 0.239-0.533 0.533-0.533s0.533 0.239 0.533 0.533v0 12.8c0 0.882 0.718 1.6 1.6 1.6s1.6-0.718 1.6-1.6v-1.067c0-0.295 0.239-0.533 0.533-0.533s0.533 0.239 0.533 0.533v0zM28.8 13.867c-1.638 0-2.658 0.931-3.2 1.647-0.542-0.716-1.562-1.647-3.2-1.647s-2.658 0.931-3.2 1.647c-0.542-0.716-1.562-1.647-3.2-1.647s-2.658 0.931-3.2 1.647c-0.542-0.716-1.562-1.647-3.2-1.647s-2.658 0.931-3.2 1.647c-0.542-0.716-1.562-1.647-3.2-1.647-0.708 0-1.275 0.171-1.722 0.411 0.384-1.354 1.078-3.301 2.261-5.229 2.308-3.761 5.497-6 9.501-6.686-5.58 3.551-7.281 10.514-7.36 10.849-0.009 0.037-0.014 0.079-0.014 0.122 0 0.295 0.239 0.533 0.533 0.533 0.251 0 0.462-0.174 0.518-0.408l0.001-0.004c0.019-0.081 1.865-7.589 7.791-10.703-2.404 4.685-2.393 10.323-2.391 10.585 0.002 0.293 0.24 0.53 0.533 0.53 0 0 0 0 0 0h0.004c0.293-0.002 0.53-0.24 0.53-0.533 0-0.001 0-0.003 0-0.004v0c-0.001-0.065-0.012-6.152 2.614-10.714 2.629 4.558 2.667 10.653 2.667 10.717 0 0.295 0.239 0.533 0.533 0.533s0.533-0.239 0.533-0.533v0c0-0.262-0.031-5.897-2.441-10.58 5.925 3.115 7.769 10.621 7.788 10.702 0.058 0.237 0.269 0.411 0.52 0.411 0.043 0 0.085-0.005 0.125-0.015l-0.004 0.001c0.238-0.057 0.411-0.268 0.411-0.519 0-0.043-0.005-0.085-0.015-0.126l0.001 0.004c-0.079-0.335-1.78-7.298-7.36-10.849 4.004 0.686 7.193 2.925 9.501 6.686 1.185 1.93 1.879 3.878 2.262 5.233-0.446-0.242-1.014-0.415-1.722-0.415zM31.975 15.807c-0.244-1.365-2.911-14.359-15.442-14.724v-0.55c0-0.295-0.239-0.533-0.533-0.533s-0.533 0.239-0.533 0.533v0 0.551c-13.156 0.383-15.439 14.691-15.461 14.837-0.004 0.023-0.006 0.050-0.006 0.077 0 0.242 0.162 0.447 0.384 0.51l0.004 0.001c0.256 0.074 0.53-0.057 0.636-0.302 0.022-0.052 0.574-1.276 2.176-1.276 1.894 0 2.678 1.738 2.71 1.81 0.084 0.191 0.271 0.322 0.489 0.322h0.002c0.211 0 0.404-0.126 0.489-0.32 0.033-0.074 0.817-1.812 2.711-1.812s2.678 1.738 2.71 1.81c0.084 0.191 0.271 0.322 0.489 0.322h0c0.003 0 0.006 0 0.010 0 0.215 0 0.4-0.13 0.48-0.317l0.001-0.003c0.033-0.074 0.817-1.812 2.711-1.812s2.678 1.738 2.71 1.81c0.084 0.191 0.271 0.322 0.488 0.322h0.002c0.211 0 0.404-0.126 0.489-0.32 0.033-0.074 0.817-1.812 2.711-1.812 1.89 0 2.675 1.73 2.71 1.811 0.084 0.19 0.271 0.321 0.488 0.321h0.002c0.211 0 0.404-0.126 0.489-0.32 0.033-0.074 0.817-1.812 2.711-1.812 1.593 0 2.154 1.226 2.175 1.275 0.083 0.193 0.272 0.325 0.491 0.325 0 0 0 0 0 0h0.011c0 0 0 0 0 0 0.295 0 0.533-0.239 0.533-0.533 0-0.069-0.013-0.135-0.037-0.196l0.001 0.004z"></path>
</symbol>
<symbol id="icon-balance" viewBox="0 0 32 32">
<path d="M31.946 16.265l-0.027 0.014-4.591-11.426h2.095c0.376 0 0.68-0.304 0.68-0.68s-0.305-0.68-0.68-0.68v0h-12.8v-1.966c0-0.376-0.305-0.68-0.68-0.68s-0.68 0.304-0.68 0.68v0 1.959h-12.793c-0.376 0-0.68 0.304-0.68 0.68s0.304 0.68 0.68 0.68v0h2.183l-4.598 11.419c-0.032 0.074-0.052 0.16-0.054 0.251v0.001c0 3.123 2.532 5.655 5.655 5.655s5.655-2.532 5.655-5.655c-0.002-0.091-0.022-0.178-0.056-0.256l0.002 0.004-4.591-11.426h8.597v21.030c-3.244 0.245-5.781 2.217-5.781 4.604 0 0.376 0.305 0.68 0.68 0.68v0h11.562c0.376 0 0.68-0.305 0.68-0.68v0c0-2.387-2.537-4.36-5.781-4.604v-21.030h8.685l-4.564 11.426c-0.032 0.074-0.052 0.16-0.054 0.251v0.001c0 3.123 2.532 5.655 5.655 5.655s5.655-2.532 5.655-5.655c-0.002-0.091-0.022-0.178-0.056-0.256l0.002 0.004zM5.652 20.822c-2.107-0.003-3.901-1.532-4.237-3.611h8.447c-0.335 2.069-2.114 3.595-4.21 3.611zM9.617 15.85h-7.917l3.965-9.869 3.952 9.869zM20.921 29.793h-9.964c0.503-1.462 2.578-2.591 4.979-2.591s4.482 1.129 4.985 2.591zM26.314 5.989l3.952 9.862h-7.917l3.965-9.862zM26.314 20.822v0.007c-2.098-0.017-3.878-1.546-4.21-3.618h8.447c-0.337 2.079-2.131 3.609-4.237 3.611z"></path>
</symbol>
<symbol id="gladery-violet" viewBox="0 0 80 32">
<path fill="#fff" style="fill: var(--color1, #fff)" d="M12.982 17.655v3.907l3.060 1.769v-7.442l-3.060 1.766z"></path>
<path fill="#3134a1" style="fill: var(--color2, #3134a1)" d="M9.662 27.014l3.319-1.917v-7.441l3.060-1.766v7.441l3.057-1.765v-10.897l-9.437 5.449v10.897zM3.28 15.888v7.442l3.061-1.769v-3.906l-3.061-1.766z"></path>
<path fill="#fff" style="fill: var(--color1, #fff)" d="M3.28 15.888l3.061 1.766v7.442l3.32 1.917v-10.897l-9.437-5.449v10.897l3.055 1.765v-7.442z"></path>
<path fill="#3134a1" style="fill: var(--color2, #3134a1)" d="M6.405 10.668l3.257-1.882 3.256 1.882-3.256 1.88zM19.098 10.668l-9.437-5.449-9.437 5.447 9.437 5.45 9.437-5.448z"></path>
<path fill="#3134a1" style="fill: var(--color2, #3134a1)" d="M9.662 8.787l-3.257 1.882 3.257 1.88z"></path>
<path fill="#fff" style="fill: var(--color1, #fff)" d="M12.918 10.668l-3.256-1.882v3.761z"></path>
<path fill="#3230bb" style="fill: var(--color3, #3230bb)" d="M31.985 20.56c-0.311 0.325-0.772 0.632-1.38 0.92-0.605 0.288-1.393 0.433-2.367 0.433-1.418 0-2.577-0.497-3.473-1.493-0.894-0.995-1.341-2.287-1.341-3.873v-0.18c0-1.595 0.442-2.889 1.326-3.88 0.888-0.99 2.068-1.487 3.54-1.487 0.787 0 1.476 0.124 2.074 0.367 0.595 0.245 1.097 0.57 1.506 0.973v1.927h-1.006l-0.353-1.467c-0.237-0.195-0.524-0.355-0.86-0.48-0.338-0.128-0.743-0.193-1.213-0.193-1.146 0-2.031 0.393-2.653 1.18-0.619 0.783-0.927 1.798-0.927 3.047v0.193c0 1.267 0.3 2.292 0.9 3.073 0.599 0.783 1.426 1.173 2.48 1.173 0.576 0 1.050-0.060 1.42-0.18 0.373-0.124 0.67-0.26 0.893-0.407v-2.32l-1.74-0.073v-1.060h3.173z"></path>
<path fill="#3230bb" style="fill: var(--color3, #3230bb)" d="M33.582 11.32v-0.927h2.62v10.247l1.187 0.2v0.92h-3.806v-0.92l1.186-0.2v-9.114z"></path>
<path fill="#3230bb" style="fill: var(--color3, #3230bb)" d="M43.621 21.76c-0.045-0.213-0.080-0.403-0.107-0.573-0.023-0.173-0.038-0.343-0.047-0.513-0.283 0.36-0.629 0.657-1.023 0.878l-0.017 0.009c-0.379 0.222-0.835 0.353-1.321 0.353-0.002 0-0.004 0-0.007 0h0c-0.823 0-1.446-0.2-1.873-0.6s-0.64-0.963-0.64-1.693c0-0.75 0.302-1.328 0.907-1.733 0.603-0.403 1.434-0.607 2.487-0.607h1.481v-0.92c0-0.462-0.147-0.827-0.44-1.094-0.29-0.27-0.693-0.407-1.213-0.407-0.36 0-0.678 0.047-0.953 0.14-0.277 0.093-0.498 0.22-0.667 0.38l-0.154 0.827h-1.106v-1.527c0.36-0.288 0.794-0.516 1.3-0.687 0.51-0.173 1.067-0.259 1.667-0.259 0.893 0 1.615 0.23 2.167 0.687 0.555 0.453 0.834 1.105 0.834 1.953v4.1c0.003 0.094 0.010 0.19 0.020 0.287l0.587 0.080v0.92zM41.307 20.714c0.475 0 0.909-0.113 1.3-0.34 0.395-0.23 0.68-0.507 0.853-0.827v-1.3h-1.533c-0.587 0-1.051 0.138-1.393 0.413-0.343 0.272-0.513 0.6-0.513 0.987 0 0.346 0.107 0.611 0.32 0.794s0.535 0.273 0.966 0.273z"></path>
<path fill="#3230bb" style="fill: var(--color3, #3230bb)" d="M52.005 20.82c-0.259 0.36-0.573 0.633-0.947 0.82-0.37 0.182-0.8 0.273-1.293 0.273-0.96 0-1.712-0.348-2.253-1.047-0.544-0.697-0.814-1.613-0.814-2.746v-0.154c0-1.27 0.27-2.293 0.814-3.066 0.541-0.777 1.3-1.167 2.273-1.167 0.462 0 0.87 0.087 1.227 0.26 0.37 0.178 0.678 0.431 0.915 0.741l0.004 0.006v-3.213l-1.187-0.207v-0.927h2.62v10.247l1.187 0.2v0.919h-2.434zM48.138 18.121c0 0.791 0.162 1.427 0.486 1.907s0.827 0.72 1.507 0.72c0.427 0 0.783-0.095 1.074-0.287 0.293-0.195 0.535-0.47 0.727-0.826v-3.66c-0.179-0.319-0.424-0.581-0.718-0.775l-0.008-0.005c-0.294-0.195-0.647-0.293-1.060-0.293-0.685 0-1.192 0.285-1.52 0.853-0.325 0.565-0.486 1.303-0.486 2.213z"></path>
<path fill="#3230bb" style="fill: var(--color3, #3230bb)" d="M59.244 21.914c-1.098 0-1.972-0.364-2.62-1.094-0.651-0.733-0.974-1.682-0.974-2.847v-0.32c0-1.123 0.334-2.057 1-2.8 0.67-0.747 1.462-1.12 2.374-1.12 1.062 0 1.863 0.32 2.406 0.96 0.547 0.64 0.82 1.497 0.82 2.567v0.893h-5.113l-0.020 0.040c0.013 0.756 0.203 1.377 0.573 1.866 0.369 0.49 0.887 0.733 1.553 0.733 0.483 0 0.908-0.068 1.274-0.206 0.368-0.14 0.684-0.334 0.956-0.576l-0.003 0.003 0.567 0.934c-0.285 0.271-0.658 0.5-1.12 0.687-0.463 0.186-1.020 0.279-1.673 0.279zM59.025 14.86c-0.48 0-0.892 0.205-1.233 0.614-0.338 0.405-0.545 0.911-0.62 1.52l0.013 0.040h3.633v-0.193c0-0.56-0.152-1.028-0.454-1.407-0.299-0.382-0.745-0.573-1.34-0.573z"></path>
<path fill="#3230bb" style="fill: var(--color3, #3230bb)" d="M63.665 14.8v-0.92h2.473l0.134 1.14c0.227-0.403 0.502-0.72 0.827-0.947 0.328-0.226 0.703-0.34 1.126-0.34 0.11 0 0.227 0.010 0.347 0.027 0.119 0.013 0.21 0.032 0.273 0.053l-0.186 1.333-0.82-0.047c-0.378 0-0.697 0.090-0.954 0.267-0.258 0.178-0.457 0.427-0.593 0.747v4.526l1.187 0.2v0.92h-3.814v-0.92l1.186-0.2v-5.633z"></path>
<path fill="#3230bb" style="fill: var(--color3, #3230bb)" d="M77.329 14.8l-0.707 0.114-3.007 8.053c-0.198 0.539-0.491 1.001-0.861 1.388l0.001-0.001c-0.373 0.395-0.876 0.593-1.506 0.593-0.112 0-0.259-0.013-0.44-0.040-0.162-0.022-0.302-0.050-0.439-0.086l0.026 0.006 0.147-1.126c-0.027-0.005 0.060 0 0.26 0.013s0.326 0.020 0.38 0.020c0.307 0 0.555-0.134 0.747-0.4 0.19-0.263 0.355-0.564 0.483-0.884l0.010-0.029 0.347-0.814-2.607-6.686-0.72-0.12v-0.92h3.186v0.92l-0.893 0.146 1.367 3.893 0.26 1.007h0.046l1.64-4.9-0.9-0.147v-0.92h3.18z"></path>
</symbol>
<symbol id="gladery-white" viewBox="0 0 80 32">
<path fill="#fff" style="fill: var(--color1, #fff)" d="M12.982 17.655v3.907l3.060 1.769v-7.442l-3.060 1.766z"></path>
<path fill="#3134a1" style="fill: var(--color2, #3134a1)" d="M9.662 27.014l3.319-1.917v-7.441l3.060-1.766v7.441l3.057-1.765v-10.897l-9.437 5.449v10.897zM3.28 15.888v7.442l3.061-1.769v-3.906l-3.061-1.766z"></path>
<path fill="#fff" style="fill: var(--color1, #fff)" d="M3.28 15.888l3.061 1.766v7.442l3.32 1.917v-10.897l-9.437-5.449v10.897l3.055 1.765v-7.442z"></path>
<path fill="#3134a1" style="fill: var(--color2, #3134a1)" d="M6.405 10.668l3.257-1.882 3.256 1.882-3.256 1.88zM19.098 10.668l-9.437-5.449-9.437 5.447 9.437 5.45 9.437-5.448z"></path>
<path fill="#3134a1" style="fill: var(--color2, #3134a1)" d="M9.662 8.787l-3.257 1.882 3.257 1.88z"></path>
<path fill="#fff" style="fill: var(--color1, #fff)" d="M12.918 10.668l-3.256-1.882v3.761z"></path>
<path fill="#fff" style="fill: var(--color1, #fff)" d="M31.985 20.56c-0.311 0.325-0.772 0.632-1.38 0.92-0.605 0.288-1.393 0.433-2.367 0.433-1.418 0-2.577-0.497-3.473-1.493-0.894-0.995-1.341-2.287-1.341-3.873v-0.18c0-1.595 0.442-2.889 1.326-3.88 0.888-0.99 2.068-1.487 3.54-1.487 0.787 0 1.476 0.124 2.074 0.367 0.595 0.245 1.097 0.57 1.506 0.973v1.927h-1.006l-0.353-1.467c-0.237-0.195-0.524-0.355-0.86-0.48-0.338-0.128-0.743-0.193-1.213-0.193-1.146 0-2.031 0.393-2.653 1.18-0.619 0.783-0.927 1.798-0.927 3.047v0.193c0 1.267 0.3 2.292 0.9 3.073 0.599 0.783 1.426 1.173 2.48 1.173 0.576 0 1.050-0.060 1.42-0.18 0.373-0.124 0.67-0.26 0.893-0.407v-2.32l-1.74-0.073v-1.060h3.173z"></path>
<path fill="#fff" style="fill: var(--color1, #fff)" d="M33.582 11.32v-0.927h2.62v10.247l1.187 0.2v0.92h-3.806v-0.92l1.186-0.2v-9.114z"></path>
<path fill="#fff" style="fill: var(--color1, #fff)" d="M43.621 21.76c-0.045-0.213-0.080-0.403-0.107-0.573-0.023-0.173-0.038-0.343-0.047-0.513-0.283 0.36-0.629 0.657-1.023 0.878l-0.017 0.009c-0.379 0.222-0.835 0.353-1.321 0.353-0.002 0-0.004 0-0.007 0h0c-0.823 0-1.446-0.2-1.873-0.6s-0.64-0.963-0.64-1.693c0-0.75 0.302-1.328 0.907-1.733 0.603-0.403 1.434-0.607 2.487-0.607h1.481v-0.92c0-0.462-0.147-0.827-0.44-1.094-0.29-0.27-0.693-0.407-1.213-0.407-0.36 0-0.678 0.047-0.953 0.14-0.277 0.093-0.498 0.22-0.667 0.38l-0.154 0.827h-1.106v-1.527c0.36-0.288 0.794-0.516 1.3-0.687 0.51-0.173 1.067-0.259 1.667-0.259 0.893 0 1.615 0.23 2.167 0.687 0.555 0.453 0.834 1.105 0.834 1.953v4.1c0.003 0.094 0.010 0.19 0.020 0.287l0.587 0.080v0.92zM41.307 20.714c0.475 0 0.909-0.113 1.3-0.34 0.395-0.23 0.68-0.507 0.853-0.827v-1.3h-1.533c-0.587 0-1.051 0.138-1.393 0.413-0.343 0.272-0.513 0.6-0.513 0.987 0 0.346 0.107 0.611 0.32 0.794s0.535 0.273 0.966 0.273z"></path>
<path fill="#fff" style="fill: var(--color1, #fff)" d="M52.005 20.82c-0.259 0.36-0.573 0.633-0.947 0.82-0.37 0.182-0.8 0.273-1.293 0.273-0.96 0-1.712-0.348-2.253-1.047-0.544-0.697-0.814-1.613-0.814-2.746v-0.154c0-1.27 0.27-2.293 0.814-3.066 0.541-0.777 1.3-1.167 2.273-1.167 0.462 0 0.87 0.087 1.227 0.26 0.37 0.178 0.678 0.431 0.915 0.741l0.004 0.006v-3.213l-1.187-0.207v-0.927h2.62v10.247l1.187 0.2v0.919h-2.434zM48.138 18.121c0 0.791 0.162 1.427 0.486 1.907s0.827 0.72 1.507 0.72c0.427 0 0.783-0.095 1.074-0.287 0.293-0.195 0.535-0.47 0.727-0.826v-3.66c-0.179-0.319-0.424-0.581-0.718-0.775l-0.008-0.005c-0.294-0.195-0.647-0.293-1.060-0.293-0.685 0-1.192 0.285-1.52 0.853-0.325 0.565-0.486 1.303-0.486 2.213z"></path>
<path fill="#fff" style="fill: var(--color1, #fff)" d="M59.244 21.914c-1.098 0-1.972-0.364-2.62-1.094-0.651-0.733-0.974-1.682-0.974-2.847v-0.32c0-1.123 0.334-2.057 1-2.8 0.67-0.747 1.462-1.12 2.374-1.12 1.062 0 1.863 0.32 2.406 0.96 0.547 0.64 0.82 1.497 0.82 2.567v0.893h-5.113l-0.020 0.040c0.013 0.756 0.203 1.377 0.573 1.866 0.369 0.49 0.887 0.733 1.553 0.733 0.483 0 0.908-0.068 1.274-0.206 0.368-0.14 0.684-0.334 0.956-0.576l-0.003 0.003 0.567 0.934c-0.285 0.271-0.658 0.5-1.12 0.687-0.463 0.186-1.020 0.279-1.673 0.279zM59.025 14.86c-0.48 0-0.892 0.205-1.233 0.614-0.338 0.405-0.545 0.911-0.62 1.52l0.013 0.040h3.633v-0.193c0-0.56-0.152-1.028-0.454-1.407-0.299-0.382-0.745-0.573-1.34-0.573z"></path>
<path fill="#fff" style="fill: var(--color1, #fff)" d="M63.665 14.8v-0.92h2.473l0.134 1.14c0.227-0.403 0.502-0.72 0.827-0.947 0.328-0.226 0.703-0.34 1.126-0.34 0.11 0 0.227 0.010 0.347 0.027 0.119 0.013 0.21 0.032 0.273 0.053l-0.186 1.333-0.82-0.047c-0.378 0-0.697 0.090-0.954 0.267-0.258 0.178-0.457 0.427-0.593 0.747v4.526l1.187 0.2v0.92h-3.814v-0.92l1.186-0.2v-5.633z"></path>
<path fill="#fff" style="fill: var(--color1, #fff)" d="M77.329 14.8l-0.707 0.114-3.007 8.053c-0.198 0.539-0.491 1.001-0.861 1.388l0.001-0.001c-0.373 0.395-0.876 0.593-1.506 0.593-0.112 0-0.259-0.013-0.44-0.040-0.162-0.022-0.302-0.050-0.439-0.086l0.026 0.006 0.147-1.126c-0.027-0.005 0.060 0 0.26 0.013s0.326 0.020 0.38 0.020c0.307 0 0.555-0.134 0.747-0.4 0.19-0.263 0.355-0.564 0.483-0.884l0.010-0.029 0.347-0.814-2.607-6.686-0.72-0.12v-0.92h3.186v0.92l-0.893 0.146 1.367 3.893 0.26 1.007h0.046l1.64-4.9-0.9-0.147v-0.92h3.18z"></path>
</symbol>
<symbol id="gladery-black" viewBox="0 0 80 32">
<path fill="#fff" style="fill: var(--color1, #fff)" d="M12.982 17.655v3.907l3.060 1.769v-7.442l-3.060 1.766z"></path>
<path fill="#3134a1" style="fill: var(--color2, #3134a1)" d="M9.662 27.014l3.319-1.917v-7.441l3.060-1.766v7.441l3.057-1.765v-10.897l-9.437 5.449v10.897zM3.28 15.888v7.442l3.061-1.769v-3.906l-3.061-1.766z"></path>
<path fill="#fff" style="fill: var(--color1, #fff)" d="M3.28 15.888l3.061 1.766v7.442l3.32 1.917v-10.897l-9.437-5.449v10.897l3.055 1.765v-7.442z"></path>
<path fill="#3134a1" style="fill: var(--color2, #3134a1)" d="M6.405 10.668l3.257-1.882 3.256 1.882-3.256 1.88zM19.098 10.668l-9.437-5.449-9.437 5.447 9.437 5.45 9.437-5.448z"></path>
<path fill="#3134a1" style="fill: var(--color2, #3134a1)" d="M9.662 8.787l-3.257 1.882 3.257 1.88z"></path>
<path fill="#fff" style="fill: var(--color1, #fff)" d="M12.918 10.668l-3.256-1.882v3.761z"></path>
<path fill="#2f303a" style="fill: var(--color4, #2f303a)" d="M31.985 20.56c-0.311 0.325-0.772 0.632-1.38 0.92-0.605 0.288-1.393 0.433-2.367 0.433-1.418 0-2.577-0.497-3.473-1.493-0.894-0.995-1.341-2.287-1.341-3.873v-0.18c0-1.595 0.442-2.889 1.326-3.88 0.888-0.99 2.068-1.487 3.54-1.487 0.787 0 1.476 0.124 2.074 0.367 0.595 0.245 1.097 0.57 1.506 0.973v1.927h-1.006l-0.353-1.467c-0.237-0.195-0.524-0.355-0.86-0.48-0.338-0.128-0.743-0.193-1.213-0.193-1.146 0-2.031 0.393-2.653 1.18-0.619 0.783-0.927 1.798-0.927 3.047v0.193c0 1.267 0.3 2.292 0.9 3.073 0.599 0.783 1.426 1.173 2.48 1.173 0.576 0 1.050-0.060 1.42-0.18 0.373-0.124 0.67-0.26 0.893-0.407v-2.32l-1.74-0.073v-1.060h3.173z"></path>
<path fill="#2f303a" style="fill: var(--color4, #2f303a)" d="M33.582 11.32v-0.927h2.62v10.247l1.187 0.2v0.92h-3.806v-0.92l1.186-0.2v-9.114z"></path>
<path fill="#2f303a" style="fill: var(--color4, #2f303a)" d="M43.621 21.76c-0.045-0.213-0.080-0.403-0.107-0.573-0.023-0.173-0.038-0.343-0.047-0.513-0.283 0.36-0.629 0.657-1.023 0.878l-0.017 0.009c-0.379 0.222-0.835 0.353-1.321 0.353-0.002 0-0.004 0-0.007 0h0c-0.823 0-1.446-0.2-1.873-0.6s-0.64-0.963-0.64-1.693c0-0.75 0.302-1.328 0.907-1.733 0.603-0.403 1.434-0.607 2.487-0.607h1.481v-0.92c0-0.462-0.147-0.827-0.44-1.094-0.29-0.27-0.693-0.407-1.213-0.407-0.36 0-0.678 0.047-0.953 0.14-0.277 0.093-0.498 0.22-0.667 0.38l-0.154 0.827h-1.106v-1.527c0.36-0.288 0.794-0.516 1.3-0.687 0.51-0.173 1.067-0.259 1.667-0.259 0.893 0 1.615 0.23 2.167 0.687 0.555 0.453 0.834 1.105 0.834 1.953v4.1c0.003 0.094 0.010 0.19 0.020 0.287l0.587 0.080v0.92zM41.307 20.714c0.475 0 0.909-0.113 1.3-0.34 0.395-0.23 0.68-0.507 0.853-0.827v-1.3h-1.533c-0.587 0-1.051 0.138-1.393 0.413-0.343 0.272-0.513 0.6-0.513 0.987 0 0.346 0.107 0.611 0.32 0.794s0.535 0.273 0.966 0.273z"></path>
<path fill="#2f303a" style="fill: var(--color4, #2f303a)" d="M52.005 20.82c-0.259 0.36-0.573 0.633-0.947 0.82-0.37 0.182-0.8 0.273-1.293 0.273-0.96 0-1.712-0.348-2.253-1.047-0.544-0.697-0.814-1.613-0.814-2.746v-0.154c0-1.27 0.27-2.293 0.814-3.066 0.541-0.777 1.3-1.167 2.273-1.167 0.462 0 0.87 0.087 1.227 0.26 0.37 0.178 0.678 0.431 0.915 0.741l0.004 0.006v-3.213l-1.187-0.207v-0.927h2.62v10.247l1.187 0.2v0.919h-2.434zM48.138 18.121c0 0.791 0.162 1.427 0.486 1.907s0.827 0.72 1.507 0.72c0.427 0 0.783-0.095 1.074-0.287 0.293-0.195 0.535-0.47 0.727-0.826v-3.66c-0.179-0.319-0.424-0.581-0.718-0.775l-0.008-0.005c-0.294-0.195-0.647-0.293-1.060-0.293-0.685 0-1.192 0.285-1.52 0.853-0.325 0.565-0.486 1.303-0.486 2.213z"></path>
<path fill="#2f303a" style="fill: var(--color4, #2f303a)" d="M59.244 21.914c-1.098 0-1.972-0.364-2.62-1.094-0.651-0.733-0.974-1.682-0.974-2.847v-0.32c0-1.123 0.334-2.057 1-2.8 0.67-0.747 1.462-1.12 2.374-1.12 1.062 0 1.863 0.32 2.406 0.96 0.547 0.64 0.82 1.497 0.82 2.567v0.893h-5.113l-0.020 0.040c0.013 0.756 0.203 1.377 0.573 1.866 0.369 0.49 0.887 0.733 1.553 0.733 0.483 0 0.908-0.068 1.274-0.206 0.368-0.14 0.684-0.334 0.956-0.576l-0.003 0.003 0.567 0.934c-0.285 0.271-0.658 0.5-1.12 0.687-0.463 0.186-1.020 0.279-1.673 0.279zM59.025 14.86c-0.48 0-0.892 0.205-1.233 0.614-0.338 0.405-0.545 0.911-0.62 1.52l0.013 0.040h3.633v-0.193c0-0.56-0.152-1.028-0.454-1.407-0.299-0.382-0.745-0.573-1.34-0.573z"></path>
<path fill="#2f303a" style="fill: var(--color4, #2f303a)" d="M63.665 14.8v-0.92h2.473l0.134 1.14c0.227-0.403 0.502-0.72 0.827-0.947 0.328-0.226 0.703-0.34 1.126-0.34 0.11 0 0.227 0.010 0.347 0.027 0.119 0.013 0.21 0.032 0.273 0.053l-0.186 1.333-0.82-0.047c-0.378 0-0.697 0.090-0.954 0.267-0.258 0.178-0.457 0.427-0.593 0.747v4.526l1.187 0.2v0.92h-3.814v-0.92l1.186-0.2v-5.633z"></path>
<path fill="#2f303a" style="fill: var(--color4, #2f303a)" d="M77.329 14.8l-0.707 0.114-3.007 8.053c-0.198 0.539-0.491 1.001-0.861 1.388l0.001-0.001c-0.373 0.395-0.876 0.593-1.506 0.593-0.112 0-0.259-0.013-0.44-0.040-0.162-0.022-0.302-0.050-0.439-0.086l0.026 0.006 0.147-1.126c-0.027-0.005 0.060 0 0.26 0.013s0.326 0.020 0.38 0.020c0.307 0 0.555-0.134 0.747-0.4 0.19-0.263 0.355-0.564 0.483-0.884l0.010-0.029 0.347-0.814-2.607-6.686-0.72-0.12v-0.92h3.186v0.92l-0.893 0.146 1.367 3.893 0.26 1.007h0.046l1.64-4.9-0.9-0.147v-0.92h3.18z"></path>
</symbol>
</defs>
</svg>
