<svg aria-hidden="true" style="position: absolute; width: 0; height: 0; overflow: hidden;" version="1.1" xmlns="http://www.w3.org/2000/svg" xmlns:xlink="http://www.w3.org/1999/xlink">
<defs>
<symbol id="gladery-violet" viewBox="0 0 80 32">
<path fill="#fff" style="fill: var(--color1, #fff)" d="M12.982 17.655v3.907l3.060 1.769v-7.442l-3.060 1.766z"></path>
<path fill="#3134a1" style="fill: var(--color2, #3134a1)" d="M9.662 27.014l3.319-1.917v-7.441l3.060-1.766v7.441l3.057-1.765v-10.897l-9.437 5.449v10.897zM3.28 15.888v7.442l3.061-1.769v-3.906l-3.061-1.766z"></path>
<path fill="#fff" style="fill: var(--color1, #fff)" d="M3.28 15.888l3.061 1.766v7.442l3.32 1.917v-10.897l-9.437-5.449v10.897l3.055 1.765v-7.442z"></path>
<path fill="#3134a1" style="fill: var(--color2, #3134a1)" d="M6.405 10.668l3.257-1.882 3.256 1.882-3.256 1.88zM19.098 10.668l-9.437-5.449-9.437 5.447 9.437 5.45 9.437-5.448z"></path>
<path fill="#3134a1" style="fill: var(--color2, #3134a1)" d="M9.662 8.787l-3.257 1.882 3.257 1.88z"></path>
<path fill="#fff" style="fill: var(--color1, #fff)" d="M12.918 10.668l-3.256-1.882v3.761z"></path>
<path fill="#3230bb" style="fill: var(--color3, #3230bb)" d="M31.985 20.56c-0.311 0.325-0.772 0.632-1.38 0.92-0.605 0.288-1.393 0.433-2.367 0.433-1.418 0-2.577-0.497-3.473-1.493-0.894-0.995-1.341-2.287-1.341-3.873v-0.18c0-1.595 0.442-2.889 1.326-3.88 0.888-0.99 2.068-1.487 3.54-1.487 0.787 0 1.476 0.124 2.074 0.367 0.595 0.245 1.097 0.57 1.506 0.973v1.927h-1.006l-0.353-1.467c-0.237-0.195-0.524-0.355-0.86-0.48-0.338-0.128-0.743-0.193-1.213-0.193-1.146 0-2.031 0.393-2.653 1.18-0.619 0.783-0.927 1.798-0.927 3.047v0.193c0 1.267 0.3 2.292 0.9 3.073 0.599 0.783 1.426 1.173 2.48 1.173 0.576 0 1.050-0.060 1.42-0.18 0.373-0.124 0.67-0.26 0.893-0.407v-2.32l-1.74-0.073v-1.060h3.173z"></path>
<path fill="#3230bb" style="fill: var(--color3, #3230bb)" d="M33.582 11.32v-0.927h2.62v10.247l1.187 0.2v0.92h-3.806v-0.92l1.186-0.2v-9.114z"></path>
<path fill="#3230bb" style="fill: var(--color3, #3230bb)" d="M43.621 21.76c-0.045-0.213-0.080-0.403-0.107-0.573-0.023-0.173-0.038-0.343-0.047-0.513-0.283 0.36-0.629 0.657-1.023 0.878l-0.017 0.009c-0.379 0.222-0.835 0.353-1.321 0.353-0.002 0-0.004 0-0.007 0h0c-0.823 0-1.446-0.2-1.873-0.6s-0.64-0.963-0.64-1.693c0-0.75 0.302-1.328 0.907-1.733 0.603-0.403 1.434-0.607 2.487-0.607h1.481v-0.92c0-0.462-0.147-0.827-0.44-1.094-0.29-0.27-0.693-0.407-1.213-0.407-0.36 0-0.678 0.047-0.953 0.14-0.277 0.093-0.498 0.22-0.667 0.38l-0.154 0.827h-1.106v-1.527c0.36-0.288 0.794-0.516 1.3-0.687 0.51-0.173 1.067-0.259 1.667-0.259 0.893 0 1.615 0.23 2.167 0.687 0.555 0.453 0.834 1.105 0.834 1.953v4.1c0.003 0.094 0.010 0.19 0.020 0.287l0.587 0.080v0.92zM41.307 20.714c0.475 0 0.909-0.113 1.3-0.34 0.395-0.23 0.68-0.507 0.853-0.827v-1.3h-1.533c-0.587 0-1.051 0.138-1.393 0.413-0.343 0.272-0.513 0.6-0.513 0.987 0 0.346 0.107 0.611 0.32 0.794s0.535 0.273 0.966 0.273z"></path>
<path fill="#3230bb" style="fill: var(--color3, #3230bb)" d="M52.005 20.82c-0.259 0.36-0.573 0.633-0.947 0.82-0.37 0.182-0.8 0.273-1.293 0.273-0.96 0-1.712-0.348-2.253-1.047-0.544-0.697-0.814-1.613-0.814-2.746v-0.154c0-1.27 0.27-2.293 0.814-3.066 0.541-0.777 1.3-1.167 2.273-1.167 0.462 0 0.87 0.087 1.227 0.26 0.37 0.178 0.678 0.431 0.915 0.741l0.004 0.006v-3.213l-1.187-0.207v-0.927h2.62v10.247l1.187 0.2v0.919h-2.434zM48.138 18.121c0 0.791 0.162 1.427 0.486 1.907s0.827 0.72 1.507 0.72c0.427 0 0.783-0.095 1.074-0.287 0.293-0.195 0.535-0.47 0.727-0.826v-3.66c-0.179-0.319-0.424-0.581-0.718-0.775l-0.008-0.005c-0.294-0.195-0.647-0.293-1.060-0.293-0.685 0-1.192 0.285-1.52 0.853-0.325 0.565-0.486 1.303-0.486 2.213z"></path>
<path fill="#3230bb" style="fill: var(--color3, #3230bb)" d="M59.244 21.914c-1.098 0-1.972-0.364-2.62-1.094-0.651-0.733-0.974-1.682-0.974-2.847v-0.32c0-1.123 0.334-2.057 1-2.8 0.67-0.747 1.462-1.12 2.374-1.12 1.062 0 1.863 0.32 2.406 0.96 0.547 0.64 0.82 1.497 0.82 2.567v0.893h-5.113l-0.020 0.040c0.013 0.756 0.203 1.377 0.573 1.866 0.369 0.49 0.887 0.733 1.553 0.733 0.483 0 0.908-0.068 1.274-0.206 0.368-0.14 0.684-0.334 0.956-0.576l-0.003 0.003 0.567 0.934c-0.285 0.271-0.658 0.5-1.12 0.687-0.463 0.186-1.020 0.279-1.673 0.279zM59.025 14.86c-0.48 0-0.892 0.205-1.233 0.614-0.338 0.405-0.545 0.911-0.62 1.52l0.013 0.040h3.633v-0.193c0-0.56-0.152-1.028-0.454-1.407-0.299-0.382-0.745-0.573-1.34-0.573z"></path>
<path fill="#3230bb" style="fill: var(--color3, #3230bb)" d="M63.665 14.8v-0.92h2.473l0.134 1.14c0.227-0.403 0.502-0.72 0.827-0.947 0.328-0.226 0.703-0.34 1.126-0.34 0.11 0 0.227 0.010 0.347 0.027 0.119 0.013 0.21 0.032 0.273 0.053l-0.186 1.333-0.82-0.047c-0.378 0-0.697 0.090-0.954 0.267-0.258 0.178-0.457 0.427-0.593 0.747v4.526l1.187 0.2v0.92h-3.814v-0.92l1.186-0.2v-5.633z"></path>
<path fill="#3230bb" style="fill: var(--color3, #3230bb)" d="M77.329 14.8l-0.707 0.114-3.007 8.053c-0.198 0.539-0.491 1.001-0.861 1.388l0.001-0.001c-0.373 0.395-0.876 0.593-1.506 0.593-0.112 0-0.259-0.013-0.44-0.040-0.162-0.022-0.302-0.050-0.439-0.086l0.026 0.006 0.147-1.126c-0.027-0.005 0.060 0 0.26 0.013s0.326 0.020 0.38 0.020c0.307 0 0.555-0.134 0.747-0.4 0.19-0.263 0.355-0.564 0.483-0.884l0.010-0.029 0.347-0.814-2.607-6.686-0.72-0.12v-0.92h3.186v0.92l-0.893 0.146 1.367 3.893 0.26 1.007h0.046l1.64-4.9-0.9-0.147v-0.92h3.18z"></path>
</symbol>
<symbol id="gladery-white" viewBox="0 0 80 32">
<path fill="#fff" style="fill: var(--color1, #fff)" d="M12.982 17.655v3.907l3.060 1.769v-7.442l-3.060 1.766z"></path>
<path fill="#3134a1" style="fill: var(--color2, #3134a1)" d="M9.662 27.014l3.319-1.917v-7.441l3.060-1.766v7.441l3.057-1.765v-10.897l-9.437 5.449v10.897zM3.28 15.888v7.442l3.061-1.769v-3.906l-3.061-1.766z"></path>
<path fill="#fff" style="fill: var(--color1, #fff)" d="M3.28 15.888l3.061 1.766v7.442l3.32 1.917v-10.897l-9.437-5.449v10.897l3.055 1.765v-7.442z"></path>
<path fill="#3134a1" style="fill: var(--color2, #3134a1)" d="M6.405 10.668l3.257-1.882 3.256 1.882-3.256 1.88zM19.098 10.668l-9.437-5.449-9.437 5.447 9.437 5.45 9.437-5.448z"></path>
<path fill="#3134a1" style="fill: var(--color2, #3134a1)" d="M9.662 8.787l-3.257 1.882 3.257 1.88z"></path>
<path fill="#fff" style="fill: var(--color1, #fff)" d="M12.918 10.668l-3.256-1.882v3.761z"></path>
<path fill="#fff" style="fill: var(--color1, #fff)" d="M31.985 20.56c-0.311 0.325-0.772 0.632-1.38 0.92-0.605 0.288-1.393 0.433-2.367 0.433-1.418 0-2.577-0.497-3.473-1.493-0.894-0.995-1.341-2.287-1.341-3.873v-0.18c0-1.595 0.442-2.889 1.326-3.88 0.888-0.99 2.068-1.487 3.54-1.487 0.787 0 1.476 0.124 2.074 0.367 0.595 0.245 1.097 0.57 1.506 0.973v1.927h-1.006l-0.353-1.467c-0.237-0.195-0.524-0.355-0.86-0.48-0.338-0.128-0.743-0.193-1.213-0.193-1.146 0-2.031 0.393-2.653 1.18-0.619 0.783-0.927 1.798-0.927 3.047v0.193c0 1.267 0.3 2.292 0.9 3.073 0.599 0.783 1.426 1.173 2.48 1.173 0.576 0 1.050-0.060 1.42-0.18 0.373-0.124 0.67-0.26 0.893-0.407v-2.32l-1.74-0.073v-1.060h3.173z"></path>
<path fill="#fff" style="fill: var(--color1, #fff)" d="M33.582 11.32v-0.927h2.62v10.247l1.187 0.2v0.92h-3.806v-0.92l1.186-0.2v-9.114z"></path>
<path fill="#fff" style="fill: var(--color1, #fff)" d="M43.621 21.76c-0.045-0.213-0.080-0.403-0.107-0.573-0.023-0.173-0.038-0.343-0.047-0.513-0.283 0.36-0.629 0.657-1.023 0.878l-0.017 0.009c-0.379 0.222-0.835 0.353-1.321 0.353-0.002 0-0.004 0-0.007 0h0c-0.823 0-1.446-0.2-1.873-0.6s-0.64-0.963-0.64-1.693c0-0.75 0.302-1.328 0.907-1.733 0.603-0.403 1.434-0.607 2.487-0.607h1.481v-0.92c0-0.462-0.147-0.827-0.44-1.094-0.29-0.27-0.693-0.407-1.213-0.407-0.36 0-0.678 0.047-0.953 0.14-0.277 0.093-0.498 0.22-0.667 0.38l-0.154 0.827h-1.106v-1.527c0.36-0.288 0.794-0.516 1.3-0.687 0.51-0.173 1.067-0.259 1.667-0.259 0.893 0 1.615 0.23 2.167 0.687 0.555 0.453 0.834 1.105 0.834 1.953v4.1c0.003 0.094 0.010 0.19 0.020 0.287l0.587 0.080v0.92zM41.307 20.714c0.475 0 0.909-0.113 1.3-0.34 0.395-0.23 0.68-0.507 0.853-0.827v-1.3h-1.533c-0.587 0-1.051 0.138-1.393 0.413-0.343 0.272-0.513 0.6-0.513 0.987 0 0.346 0.107 0.611 0.32 0.794s0.535 0.273 0.966 0.273z"></path>
<path fill="#fff" style="fill: var(--color1, #fff)" d="M52.005 20.82c-0.259 0.36-0.573 0.633-0.947 0.82-0.37 0.182-0.8 0.273-1.293 0.273-0.96 0-1.712-0.348-2.253-1.047-0.544-0.697-0.814-1.613-0.814-2.746v-0.154c0-1.27 0.27-2.293 0.814-3.066 0.541-0.777 1.3-1.167 2.273-1.167 0.462 0 0.87 0.087 1.227 0.26 0.37 0.178 0.678 0.431 0.915 0.741l0.004 0.006v-3.213l-1.187-0.207v-0.927h2.62v10.247l1.187 0.2v0.919h-2.434zM48.138 18.121c0 0.791 0.162 1.427 0.486 1.907s0.827 0.72 1.507 0.72c0.427 0 0.783-0.095 1.074-0.287 0.293-0.195 0.535-0.47 0.727-0.826v-3.66c-0.179-0.319-0.424-0.581-0.718-0.775l-0.008-0.005c-0.294-0.195-0.647-0.293-1.060-0.293-0.685 0-1.192 0.285-1.52 0.853-0.325 0.565-0.486 1.303-0.486 2.213z"></path>
<path fill="#fff" style="fill: var(--color1, #fff)" d="M59.244 21.914c-1.098 0-1.972-0.364-2.62-1.094-0.651-0.733-0.974-1.682-0.974-2.847v-0.32c0-1.123 0.334-2.057 1-2.8 0.67-0.747 1.462-1.12 2.374-1.12 1.062 0 1.863 0.32 2.406 0.96 0.547 0.64 0.82 1.497 0.82 2.567v0.893h-5.113l-0.020 0.040c0.013 0.756 0.203 1.377 0.573 1.866 0.369 0.49 0.887 0.733 1.553 0.733 0.483 0 0.908-0.068 1.274-0.206 0.368-0.14 0.684-0.334 0.956-0.576l-0.003 0.003 0.567 0.934c-0.285 0.271-0.658 0.5-1.12 0.687-0.463 0.186-1.020 0.279-1.673 0.279zM59.025 14.86c-0.48 0-0.892 0.205-1.233 0.614-0.338 0.405-0.545 0.911-0.62 1.52l0.013 0.040h3.633v-0.193c0-0.56-0.152-1.028-0.454-1.407-0.299-0.382-0.745-0.573-1.34-0.573z"></path>
<path fill="#fff" style="fill: var(--color1, #fff)" d="M63.665 14.8v-0.92h2.473l0.134 1.14c0.227-0.403 0.502-0.72 0.827-0.947 0.328-0.226 0.703-0.34 1.126-0.34 0.11 0 0.227 0.010 0.347 0.027 0.119 0.013 0.21 0.032 0.273 0.053l-0.186 1.333-0.82-0.047c-0.378 0-0.697 0.090-0.954 0.267-0.258 0.178-0.457 0.427-0.593 0.747v4.526l1.187 0.2v0.92h-3.814v-0.92l1.186-0.2v-5.633z"></path>
<path fill="#fff" style="fill: var(--color1, #fff)" d="M77.329 14.8l-0.707 0.114-3.007 8.053c-0.198 0.539-0.491 1.001-0.861 1.388l0.001-0.001c-0.373 0.395-0.876 0.593-1.506 0.593-0.112 0-0.259-0.013-0.44-0.040-0.162-0.022-0.302-0.050-0.439-0.086l0.026 0.006 0.147-1.126c-0.027-0.005 0.060 0 0.26 0.013s0.326 0.020 0.38 0.020c0.307 0 0.555-0.134 0.747-0.4 0.19-0.263 0.355-0.564 0.483-0.884l0.010-0.029 0.347-0.814-2.607-6.686-0.72-0.12v-0.92h3.186v0.92l-0.893 0.146 1.367 3.893 0.26 1.007h0.046l1.64-4.9-0.9-0.147v-0.92h3.18z"></path>
</symbol>
<symbol id="gladery-black" viewBox="0 0 80 32">
<path fill="#fff" style="fill: var(--color1, #fff)" d="M12.982 17.655v3.907l3.060 1.769v-7.442l-3.060 1.766z"></path>
<path fill="#3134a1" style="fill: var(--color2, #3134a1)" d="M9.662 27.014l3.319-1.917v-7.441l3.060-1.766v7.441l3.057-1.765v-10.897l-9.437 5.449v10.897zM3.28 15.888v7.442l3.061-1.769v-3.906l-3.061-1.766z"></path>
<path fill="#fff" style="fill: var(--color1, #fff)" d="M3.28 15.888l3.061 1.766v7.442l3.32 1.917v-10.897l-9.437-5.449v10.897l3.055 1.765v-7.442z"></path>
<path fill="#3134a1" style="fill: var(--color2, #3134a1)" d="M6.405 10.668l3.257-1.882 3.256 1.882-3.256 1.88zM19.098 10.668l-9.437-5.449-9.437 5.447 9.437 5.45 9.437-5.448z"></path>
<path fill="#3134a1" style="fill: var(--color2, #3134a1)" d="M9.662 8.787l-3.257 1.882 3.257 1.88z"></path>
<path fill="#fff" style="fill: var(--color1, #fff)" d="M12.918 10.668l-3.256-1.882v3.761z"></path>
<path fill="#2f303a" style="fill: var(--color4, #2f303a)" d="M31.985 20.56c-0.311 0.325-0.772 0.632-1.38 0.92-0.605 0.288-1.393 0.433-2.367 0.433-1.418 0-2.577-0.497-3.473-1.493-0.894-0.995-1.341-2.287-1.341-3.873v-0.18c0-1.595 0.442-2.889 1.326-3.88 0.888-0.99 2.068-1.487 3.54-1.487 0.787 0 1.476 0.124 2.074 0.367 0.595 0.245 1.097 0.57 1.506 0.973v1.927h-1.006l-0.353-1.467c-0.237-0.195-0.524-0.355-0.86-0.48-0.338-0.128-0.743-0.193-1.213-0.193-1.146 0-2.031 0.393-2.653 1.18-0.619 0.783-0.927 1.798-0.927 3.047v0.193c0 1.267 0.3 2.292 0.9 3.073 0.599 0.783 1.426 1.173 2.48 1.173 0.576 0 1.050-0.060 1.42-0.18 0.373-0.124 0.67-0.26 0.893-0.407v-2.32l-1.74-0.073v-1.060h3.173z"></path>
<path fill="#2f303a" style="fill: var(--color4, #2f303a)" d="M33.582 11.32v-0.927h2.62v10.247l1.187 0.2v0.92h-3.806v-0.92l1.186-0.2v-9.114z"></path>
<path fill="#2f303a" style="fill: var(--color4, #2f303a)" d="M43.621 21.76c-0.045-0.213-0.080-0.403-0.107-0.573-0.023-0.173-0.038-0.343-0.047-0.513-0.283 0.36-0.629 0.657-1.023 0.878l-0.017 0.009c-0.379 0.222-0.835 0.353-1.321 0.353-0.002 0-0.004 0-0.007 0h0c-0.823 0-1.446-0.2-1.873-0.6s-0.64-0.963-0.64-1.693c0-0.75 0.302-1.328 0.907-1.733 0.603-0.403 1.434-0.607 2.487-0.607h1.481v-0.92c0-0.462-0.147-0.827-0.44-1.094-0.29-0.27-0.693-0.407-1.213-0.407-0.36 0-0.678 0.047-0.953 0.14-0.277 0.093-0.498 0.22-0.667 0.38l-0.154 0.827h-1.106v-1.527c0.36-0.288 0.794-0.516 1.3-0.687 0.51-0.173 1.067-0.259 1.667-0.259 0.893 0 1.615 0.23 2.167 0.687 0.555 0.453 0.834 1.105 0.834 1.953v4.1c0.003 0.094 0.010 0.19 0.020 0.287l0.587 0.080v0.92zM41.307 20.714c0.475 0 0.909-0.113 1.3-0.34 0.395-0.23 0.68-0.507 0.853-0.827v-1.3h-1.533c-0.587 0-1.051 0.138-1.393 0.413-0.343 0.272-0.513 0.6-0.513 0.987 0 0.346 0.107 0.611 0.32 0.794s0.535 0.273 0.966 0.273z"></path>
<path fill="#2f303a" style="fill: var(--color4, #2f303a)" d="M52.005 20.82c-0.259 0.36-0.573 0.633-0.947 0.82-0.37 0.182-0.8 0.273-1.293 0.273-0.96 0-1.712-0.348-2.253-1.047-0.544-0.697-0.814-1.613-0.814-2.746v-0.154c0-1.27 0.27-2.293 0.814-3.066 0.541-0.777 1.3-1.167 2.273-1.167 0.462 0 0.87 0.087 1.227 0.26 0.37 0.178 0.678 0.431 0.915 0.741l0.004 0.006v-3.213l-1.187-0.207v-0.927h2.62v10.247l1.187 0.2v0.919h-2.434zM48.138 18.121c0 0.791 0.162 1.427 0.486 1.907s0.827 0.72 1.507 0.72c0.427 0 0.783-0.095 1.074-0.287 0.293-0.195 0.535-0.47 0.727-0.826v-3.66c-0.179-0.319-0.424-0.581-0.718-0.775l-0.008-0.005c-0.294-0.195-0.647-0.293-1.060-0.293-0.685 0-1.192 0.285-1.52 0.853-0.325 0.565-0.486 1.303-0.486 2.213z"></path>
<path fill="#2f303a" style="fill: var(--color4, #2f303a)" d="M59.244 21.914c-1.098 0-1.972-0.364-2.62-1.094-0.651-0.733-0.974-1.682-0.974-2.847v-0.32c0-1.123 0.334-2.057 1-2.8 0.67-0.747 1.462-1.12 2.374-1.12 1.062 0 1.863 0.32 2.406 0.96 0.547 0.64 0.82 1.497 0.82 2.567v0.893h-5.113l-0.020 0.040c0.013 0.756 0.203 1.377 0.573 1.866 0.369 0.49 0.887 0.733 1.553 0.733 0.483 0 0.908-0.068 1.274-0.206 0.368-0.14 0.684-0.334 0.956-0.576l-0.003 0.003 0.567 0.934c-0.285 0.271-0.658 0.5-1.12 0.687-0.463 0.186-1.020 0.279-1.673 0.279zM59.025 14.86c-0.48 0-0.892 0.205-1.233 0.614-0.338 0.405-0.545 0.911-0.62 1.52l0.013 0.040h3.633v-0.193c0-0.56-0.152-1.028-0.454-1.407-0.299-0.382-0.745-0.573-1.34-0.573z"></path>
<path fill="#2f303a" style="fill: var(--color4, #2f303a)" d="M63.665 14.8v-0.92h2.473l0.134 1.14c0.227-0.403 0.502-0.72 0.827-0.947 0.328-0.226 0.703-0.34 1.126-0.34 0.11 0 0.227 0.010 0.347 0.027 0.119 0.013 0.21 0.032 0.273 0.053l-0.186 1.333-0.82-0.047c-0.378 0-0.697 0.090-0.954 0.267-0.258 0.178-0.457 0.427-0.593 0.747v4.526l1.187 0.2v0.92h-3.814v-0.92l1.186-0.2v-5.633z"></path>
<path fill="#2f303a" style="fill: var(--color4, #2f303a)" d="M77.329 14.8l-0.707 0.114-3.007 8.053c-0.198 0.539-0.491 1.001-0.861 1.388l0.001-0.001c-0.373 0.395-0.876 0.593-1.506 0.593-0.112 0-0.259-0.013-0.44-0.040-0.162-0.022-0.302-0.050-0.439-0.086l0.026 0.006 0.147-1.126c-0.027-0.005 0.060 0 0.26 0.013s0.326 0.020 0.38 0.020c0.307 0 0.555-0.134 0.747-0.4 0.19-0.263 0.355-0.564 0.483-0.884l0.010-0.029 0.347-0.814-2.607-6.686-0.72-0.12v-0.92h3.186v0.92l-0.893 0.146 1.367 3.893 0.26 1.007h0.046l1.64-4.9-0.9-0.147v-0.92h3.18z"></path>
</symbol>
</defs>
</svg>
