<svg aria-hidden="true" style="position: absolute; width: 0; height: 0; overflow: hidden;" version="1.1" xmlns="http://www.w3.org/2000/svg" xmlns:xlink="http://www.w3.org/1999/xlink">
<defs>
<symbol id="icon-diamond" viewBox="0 0 32 32">
<path d="M31.898 13.473l-5.124-7.814c-0.113-0.171-0.305-0.282-0.523-0.282h-20.477c-0.21 0-0.406 0.106-0.522 0.281l-5.133 7.791c-0.074 0.102-0.119 0.229-0.119 0.367 0 0.158 0.059 0.302 0.155 0.412l-0.001-0.001 2.602 2.97c0.227 0.26 0.622 0.286 0.882 0.058s0.286-0.622 0.058-0.882l-1.694-1.934h8.406l4.224 14.422-4.773-5.45c-0.227-0.26-0.622-0.286-0.882-0.058s-0.286 0.622-0.058 0.882l6.612 7.549c0.115 0.131 0.283 0.213 0.47 0.213s0.355-0.082 0.47-0.213l0.001-0.001 7.039-8.040c0.227-0.26 0.201-0.654-0.058-0.882s-0.655-0.201-0.882 0.058l-5.201 5.94 4.224-14.421h8.403l-3.886 4.439c-0.227 0.26-0.201 0.654 0.058 0.882 0.109 0.096 0.253 0.155 0.411 0.155 0 0 0 0 0.001 0h-0c0 0 0.001 0 0.001 0 0.187 0 0.355-0.082 0.469-0.213l0.001-0.001 4.794-5.475c0.096-0.109 0.155-0.254 0.155-0.412 0-0.128-0.038-0.246-0.104-0.345l0.001 0.002zM1.786 13.191l3.987-6.051 3.968 6.051h-7.955zM6.931 6.627h7.914l-3.957 6.034-3.957-6.034zM16.002 7.141l3.967 6.050h-7.934l3.967-6.050zM16.002 29.088l-4.29-14.647h8.58l-4.29 14.647zM21.126 12.676l-3.967-6.050h7.934l-3.967 6.050zM22.283 13.191l3.967-6.050 3.967 6.050h-7.934z"></path>
<path d="M9.824 20.439c-1.612 0-2.924-1.312-2.924-2.924 0-0.345-0.28-0.625-0.625-0.625s-0.625 0.28-0.625 0.625c0 1.612-1.312 2.924-2.924 2.924-0.345 0-0.625 0.28-0.625 0.625s0.28 0.625 0.625 0.625c1.612 0 2.924 1.312 2.924 2.924 0 0.345 0.28 0.625 0.625 0.625s0.625-0.28 0.625-0.625c0-1.612 1.312-2.924 2.924-2.924 0.345 0 0.625-0.28 0.625-0.625s-0.28-0.625-0.625-0.625zM6.276 22.417c-0.347-0.553-0.801-1.007-1.336-1.344l-0.017-0.010c0.553-0.347 1.007-0.801 1.343-1.336l0.010-0.017c0.347 0.553 0.801 1.007 1.336 1.344l0.017 0.010c-0.553 0.347-1.007 0.801-1.343 1.336l-0.010 0.017zM31.375 2.501c-1.034 0-1.875-0.841-1.875-1.875 0-0.345-0.28-0.625-0.625-0.625s-0.625 0.28-0.625 0.625c0 1.034-0.841 1.875-1.875 1.875-0.345 0-0.625 0.28-0.625 0.625s0.28 0.625 0.625 0.625c1.034 0 1.875 0.841 1.875 1.875 0 0.345 0.28 0.625 0.625 0.625s0.625-0.28 0.625-0.625c0-1.034 0.841-1.875 1.875-1.875 0.345 0 0.625-0.28 0.625-0.625s-0.28-0.625-0.625-0.625zM28.875 3.753c-0.181-0.239-0.388-0.446-0.619-0.621l-0.008-0.006c0.239-0.181 0.446-0.388 0.621-0.619l0.006-0.008c0.181 0.239 0.388 0.446 0.619 0.621l0.008 0.006c-0.239 0.181-0.446 0.388-0.621 0.619l-0.006 0.008zM25.174 20.961c-0.113-0.113-0.269-0.183-0.442-0.183h-0c-0.164 0-0.325 0.066-0.442 0.183s-0.183 0.277-0.183 0.442 0.067 0.326 0.183 0.442c0.113 0.113 0.269 0.183 0.442 0.183h0c0.164 0 0.326-0.067 0.442-0.183s0.183-0.277 0.183-0.442-0.067-0.326-0.183-0.442z"></path>
</symbol>
<symbol id="icon-umbrella" viewBox="0 0 32 32">
<path d="M27.256 6.7c-2.656-2.63-6.075-4.218-9.752-4.559v-0.637c0-0.829-0.675-1.504-1.504-1.504s-1.504 0.675-1.504 1.504v0.636c-2.866 0.265-5.581 1.289-7.925 3.002-0.119 0.086-0.195 0.224-0.195 0.381 0 0.259 0.21 0.469 0.469 0.469 0.105 0 0.202-0.035 0.281-0.093l-0.001 0.001c2.018-1.474 4.327-2.406 6.77-2.746-0.757 0.823-1.437 2.101-1.999 3.787-0.903 2.709-1.437 6.223-1.527 9.993-1.196-1.23-2.87-1.92-4.725-1.92s-3.482 0.698-4.669 1.986c0.264-3.804 1.928-7.304 4.742-9.935 0.092-0.086 0.149-0.207 0.149-0.342 0-0.259-0.21-0.469-0.469-0.469-0.124 0-0.237 0.048-0.32 0.127l0-0c-1.564 1.462-2.801 3.19-3.676 5.135-0.905 2.012-1.376 4.159-1.4 6.381-0 0.003-0 0.005-0 0.008 0 0.174 0.070 0.332 0.184 0.446l-0-0c0.115 0.117 0.275 0.189 0.452 0.189 0.001 0 0.001 0 0.002 0h-0c0.21 0 0.406-0.103 0.525-0.277 1.025-1.491 2.616-2.312 4.479-2.312 1.897 0 3.569 0.831 4.586 2.279 0.136 0.194 0.357 0.309 0.592 0.309h0c0.235 0 0.456-0.116 0.592-0.309 0.738-1.050 1.819-1.776 3.082-2.095v3.755c0 0.259 0.21 0.469 0.469 0.469s0.469-0.21 0.469-0.469v0-3.914c0.186-0.017 0.375-0.026 0.567-0.026s0.38 0.009 0.567 0.026v7.838h-1.133v-2.049c0-0.259-0.21-0.469-0.469-0.469s-0.469 0.21-0.469 0.469v0 5.624c0 2.542 2.068 4.61 4.61 4.61s4.61-2.068 4.61-4.61v-1.035c0-0.829-0.675-1.504-1.504-1.504s-1.504 0.675-1.504 1.504v1.035c0 0.883-0.719 1.602-1.602 1.602s-1.602-0.719-1.602-1.602v-11.254c1.262 0.319 2.344 1.045 3.082 2.095 0.136 0.194 0.358 0.309 0.592 0.309h0c0.235-0 0.456-0.116 0.592-0.309 1.017-1.448 2.689-2.279 4.586-2.279 1.863 0 3.454 0.821 4.479 2.312 0.116 0.168 0.308 0.277 0.525 0.277h0c0 0 0.001 0 0.002 0 0.177 0 0.337-0.073 0.452-0.189l0-0c0.114-0.114 0.184-0.272 0.184-0.446 0-0.003-0-0.006-0-0.009v0c-0.046-4.237-1.73-8.213-4.743-11.196zM19.107 29.929c1.4 0 2.54-1.139 2.54-2.54v-1.035c0-0.312 0.254-0.567 0.567-0.567s0.567 0.254 0.567 0.567v1.035c0 2.025-1.648 3.673-3.673 3.673s-3.673-1.648-3.673-3.673v-2.637h1.133v2.637c0 1.4 1.139 2.54 2.54 2.54zM15.434 1.504c0-0.313 0.254-0.567 0.567-0.567s0.567 0.254 0.567 0.567v0.578c-0.167-0.007-0.365-0.011-0.564-0.011h-0.003c-0.189 0-0.378 0.004-0.566 0.010zM16 15.014c-1.838 0-3.499 0.677-4.693 1.887 0.091-3.657 0.608-7.053 1.478-9.664 0.896-2.687 2.068-4.229 3.216-4.229s2.32 1.541 3.216 4.229c0.87 2.611 1.387 6.007 1.478 9.664-1.194-1.21-2.855-1.887-4.694-1.887zM26.357 15.014c-1.855 0-3.528 0.69-4.725 1.919-0.090-3.77-0.624-7.284-1.527-9.993-0.561-1.682-1.24-2.959-1.995-3.783 6.939 0.985 12.41 6.752 12.914 13.841-1.186-1.287-2.813-1.985-4.668-1.985z"></path>
</symbol>
<symbol id="icon-balance" viewBox="0 0 32 32">
<path d="M31.946 16.265l-0.027 0.014-4.591-11.426h2.095c0.376 0 0.68-0.304 0.68-0.68s-0.305-0.68-0.68-0.68v0h-12.8v-1.966c0-0.376-0.305-0.68-0.68-0.68s-0.68 0.304-0.68 0.68v0 1.959h-12.793c-0.376 0-0.68 0.304-0.68 0.68s0.304 0.68 0.68 0.68v0h2.183l-4.598 11.419c-0.032 0.074-0.052 0.16-0.054 0.251v0.001c0 3.123 2.532 5.655 5.655 5.655s5.655-2.532 5.655-5.655c-0.002-0.091-0.022-0.178-0.056-0.256l0.002 0.004-4.591-11.426h8.597v21.030c-3.244 0.245-5.781 2.217-5.781 4.604 0 0.376 0.305 0.68 0.68 0.68v0h11.562c0.376 0 0.68-0.305 0.68-0.68v0c0-2.387-2.537-4.36-5.781-4.604v-21.030h8.685l-4.564 11.426c-0.032 0.074-0.052 0.16-0.054 0.251v0.001c0 3.123 2.532 5.655 5.655 5.655s5.655-2.532 5.655-5.655c-0.002-0.091-0.022-0.178-0.056-0.256l0.002 0.004zM5.652 20.822c-2.107-0.003-3.901-1.532-4.237-3.611h8.447c-0.335 2.069-2.114 3.595-4.21 3.611zM9.617 15.85h-7.917l3.965-9.869 3.952 9.869zM20.921 29.793h-9.964c0.503-1.462 2.578-2.591 4.979-2.591s4.482 1.129 4.985 2.591zM26.314 5.989l3.952 9.862h-7.917l3.965-9.862zM26.314 20.822v0.007c-2.098-0.017-3.878-1.546-4.21-3.618h8.447c-0.337 2.079-2.131 3.609-4.237 3.611z"></path>
</symbol>
</defs>
</svg>
